<svg width="56" height="63" viewBox="0 0 56 63" fill="none" xmlns="http://www.w3.org/2000/svg">
<g clip-path="url(#clip0_261_441)">
<path d="M13.7437 42.7933C12.1432 41.6705 11.6846 40.7973 12.3352 38.4231L16.5181 38.25L16.0486 39.9808L13.7437 42.7933Z" fill="#2320B4"/>
<path d="M17.2442 46.1252L15.8356 47.856L14.7686 49.2406C16.4607 48.6557 17.3955 48.252 18.8234 48.332L19.0368 47.6829L19.3356 46.8608L19.7198 45.9521L20.2747 44.3945L20.6161 43.1396L20.9149 42.1012V40.8896L20.232 41.7118L19.6771 42.2743L19.2503 42.9233L18.6954 43.5291L17.9698 44.8704L17.2442 46.1252Z" fill="#2320B4"/>
<path d="M24.6281 46.5146C24.6258 46.4745 24.647 46.418 24.6891 46.3497C25.0388 44.8707 26.7622 34.9185 26.7622 34.9185H29.8354L31.6281 46.6444C29.1081 42.7201 25.2217 45.4873 24.6891 46.3497C24.6526 46.5043 24.6311 46.5664 24.6281 46.5146Z" fill="#2320B4"/>
<path d="M35.8107 44.0913L35.512 42.7932L35.3412 41.8413L35.2559 40.8461L35.3412 40.1538L38.9266 44.524L42.2132 49.1105C40.0127 48.8411 38.8302 48.5342 36.8778 47.5096L36.579 47.0336L36.4083 46.1682L36.1522 45.1298L35.8107 44.0913Z" fill="#2320B4"/>
<path d="M41.1459 38.5528L40.0361 38.3364L40.5483 39.8941L40.8471 40.5432L41.2313 41.2355L41.9142 42.1874L42.7252 43.0095C44.4554 41.7595 44.7907 40.7099 44.4752 38.3364L43.0666 38.4662L42.213 38.5095L41.1459 38.5528Z" fill="#2320B4"/>
<path fill-rule="evenodd" clip-rule="evenodd" d="M27.4451 0H27.4383L27.4315 0.000738711L26.2363 0.130547L26.233 0.130906L26.2298 0.131438L25.1654 0.304102L25.1627 0.304515L23.9276 0.477179L23.9175 0.478586L23.9078 0.481586L22.9261 0.78447L22.9258 0.784586L21.816 1.13074L21.8089 1.13295L21.8021 1.13599L20.737 1.61107L19.8854 1.9564L19.873 1.96142L19.8619 1.96891L19.226 2.39869L18.4622 2.82884L18.4567 2.83194L18.4515 2.83558L17.8966 3.225L17.8916 3.22858L17.8868 3.23264L17.3333 3.70745L16.9078 4.05248L16.8989 4.05968L16.8914 4.06836L16.5955 4.41127L16.2167 4.79522L15.7935 5.18132L15.496 5.4399L15.4894 5.44564L15.4836 5.45223L15.1446 5.83879L14.8485 6.13898L14.5924 6.39859L14.586 6.40512L14.5805 6.4125L14.3299 6.75127L14.0375 7.04763L14.0311 7.05416L14.0256 7.06154L13.7695 7.40769L13.7674 7.41057L13.7654 7.41358L13.5101 7.80176L13.2134 8.23151L12.8305 8.74904L12.8278 8.75276L12.8252 8.75674L12.441 9.36251L12.4374 9.36839L12.4342 9.37463L11.922 10.4131L11.9218 10.4137L11.9214 10.4144L11.1531 12.0153L11.1471 12.0279L11.1438 12.0416L10.8024 13.4695L10.8021 13.4705L10.5033 14.7686L10.5027 14.7714L10.5021 14.7744L10.1607 16.6349L10.1602 16.6379L10.1597 16.6408L9.94632 18.1985L9.94512 18.2073V18.2163V19.601V19.6083L9.94598 19.6156L10.1594 21.5194L10.1603 21.5284L10.1626 21.5373L10.5038 22.8777L10.5041 22.8786L10.8026 24.0892L10.8036 24.0933L10.8048 24.0972L11.1457 25.177L11.4867 26.3866L11.4885 26.393L11.4908 26.3992L11.9177 27.4809L11.9187 27.4835L11.9198 27.486L12.304 28.3514L12.3045 28.3527L12.3052 28.3541L12.7747 29.3493L12.7771 29.3543L12.7799 29.3591L13.189 30.0642V30.2019V30.2244L13.1965 30.2456L13.4024 30.8302V31.4308L13.2233 31.8668L12.4778 32.0656L11.5976 32.2356H10.9436L10.3294 32.0695L9.57028 31.7275L9.56892 31.7269L9.56755 31.7263L9.05578 31.5102L9.05535 31.51L8.25099 31.1667L7.40524 30.6951L6.76885 30.308L6.17524 29.9212L5.4571 29.4073L4.82167 28.849L4.81713 28.845L4.81224 28.8415L3.92016 28.1955L3.37337 27.7265L2.91825 27.2652L2.58466 26.7156L2.58194 26.7111L2.57887 26.7069L2.11577 26.0667L1.92073 25.6713V25.2692V24.6751L2.00304 24.2162L2.12707 23.7552L2.28997 23.3836L2.57609 22.9278L2.99299 22.5053L2.99537 22.5029L2.99761 22.5003L3.37951 22.0702L3.61853 21.8279L3.99974 21.6346H4.35366H4.92099L5.29873 21.826L5.61 22.1811L5.84756 22.743V23.7115L6.09495 23.7586L6.39373 22.9798L6.40405 22.9529L6.40216 22.924L6.35947 22.275L6.3579 22.251L6.34797 22.2292L6.09187 21.6667L6.08722 21.6565L6.08089 21.6473L5.69674 21.0848L5.67662 21.0553L5.64445 21.0404L5.17494 20.8241L5.16325 20.8187L5.15074 20.8158L4.59587 20.686L4.58165 20.6827H4.56707H4.18293H3.84146H3.54268H3.52389L3.50589 20.6881L3.07906 20.818L3.06848 20.8212L3.05859 20.8262L2.63176 21.0425L1.94883 21.3887L1.93332 21.3965L1.92044 21.4083L1.06678 22.1872L1.05567 22.1973L1.04716 22.2098L0.663012 22.7723L0.659138 22.778L0.655879 22.784L0.399782 23.26L0.391941 23.2745L0.38797 23.2906L0.175055 24.154L0.174555 24.156L0.00432358 24.803L0 24.8195V24.8365V25.875V25.883L0.00098881 25.8911L0.0863544 26.5834L0.0864893 26.5844L0.171855 27.2335L0.173028 27.2424L0.175403 27.251L0.388818 28.0299L0.391116 28.0383L0.3945 28.0463L0.650597 28.6521L1.03475 29.5608L1.03622 29.5642L1.03791 29.5677L1.37938 30.26L1.38223 30.2658L1.38564 30.2712L1.89784 31.0934L1.90251 31.1009L1.90815 31.1076L2.59108 31.9298L2.59573 31.9354L2.60096 31.9404L3.40847 32.7159L3.83081 33.1868L3.83208 33.1883L4.47105 33.9224L4.47723 33.9295L4.48436 33.9356L5.03902 34.4114L5.03924 34.4116L5.89268 35.147L5.90234 35.1553L5.91342 35.1615L6.29076 35.3741L6.75395 35.7155L6.75717 35.7179L6.76052 35.7201L7.23004 36.023L7.23367 36.0254L7.23746 36.0274L7.70476 36.2858L7.70697 36.287L8.00354 36.4588L8.00663 36.4606L8.00981 36.4623L8.25878 36.5885L8.63629 36.8436L8.63826 36.8449L8.64022 36.8461L9.1951 37.1922L9.20363 37.1976L9.21294 37.2016L9.72394 37.4174L9.72513 37.4179L10.3163 37.6747L10.8661 37.9749L10.8741 37.9792L10.8825 37.9824L11.6935 38.2853L11.6973 38.2866L11.701 38.2878L12.1278 38.4176L12.1459 38.4231H12.1646H12.6341H13.1763L13.5908 38.5071L13.6095 38.5109L13.6286 38.509L14.4759 38.4231H15.0555L15.5137 38.5075L15.5356 38.5116L15.5577 38.5079L16.0699 38.4213L16.0786 38.4199L16.0869 38.4172L16.508 38.2838L16.4001 38.5462L16.3983 38.5506L16.3968 38.5551L16.2304 39.0614L15.811 39.7842L15.8104 39.7851L15.4302 40.4275L15.05 40.9413L15.0487 40.9431L15.0475 40.9448L14.754 41.3701L14.1625 42.0124L14.1451 42.0312L14.1362 42.0554L13.8863 42.731L13.4272 43.3656L13.4233 43.371L13.4199 43.3769L13.1265 43.8868L12.4986 44.6506L11.9964 45.1173L11.4049 45.5885L11.4026 45.5902L10.7248 46.1055L10.0955 46.5309L9.39537 46.8648L8.56971 46.9904H7.76829H6.6743L6.18073 46.8653L5.63924 46.6964L5.06447 46.405L4.56553 45.9836L4.16147 45.6149L4.04452 45.3383L4.0399 45.3274L4.03337 45.3174L3.78467 44.9392L3.62805 44.5423V43.7885V43.2921L3.78686 42.8493L4.02852 42.4411L4.40152 42.063L4.40349 42.061L4.40536 42.0589L4.86684 41.5485L5.1914 41.3018L5.61947 41.0651L6.1357 41.1053L6.13652 41.1054L6.6288 41.147L7.03073 41.31L7.46914 41.5524L7.81098 42.0144V42.3606V42.7933V42.8107L7.81549 42.8275L7.94354 43.3034L8.19228 43.2964L8.31989 42.6926L8.32033 42.6906L8.44794 42.1301L8.45122 42.1158V42.101V41.4519V41.4359L8.4474 41.4204L8.31935 40.9012L8.31074 40.8663L8.28567 40.8409L7.85884 40.4082L7.8489 40.3981L7.83704 40.3904L7.36753 40.0876L7.36338 40.085L7.35904 40.0825L6.7188 39.7364L6.69055 39.7212H6.65854H6.23171H5.71951H5.29268H4.9939H4.97312L4.95341 39.7278L4.44405 39.8999L4.44122 39.9009L3.88917 40.073L3.88415 40.0746L3.87927 40.0766L3.45244 40.2496L3.4387 40.2553L3.42657 40.2638L2.99974 40.5667L2.9946 40.5704L2.98984 40.5745L2.69106 40.8341L2.68039 40.8434L2.67195 40.8548L2.2878 41.374L2.28384 41.3794L2.28045 41.3851L1.8963 42.0342L1.88829 42.0477L1.88371 42.0628L1.71298 42.6253L1.7126 42.6265L1.71224 42.6278L1.62811 42.9263L1.45893 43.3979L1.45122 43.4195V43.4423V43.9473L1.3689 44.3228L1.36585 44.3367V44.351V44.7404V45.2163V45.228L1.36792 45.2395L1.45329 45.7155L1.45421 45.7207L1.45554 45.7257L1.62627 46.3747L1.62825 46.3824L1.63111 46.3895L1.88721 47.0386L1.88868 47.0423L1.89038 47.0459L2.27452 47.8681L2.279 47.8777L2.28496 47.8864L2.66629 48.4448L2.96256 48.9597L2.97264 48.9771L2.98751 48.9907L3.40751 49.3739L3.82846 49.886L3.83351 49.8921L3.83925 49.8976L4.52218 50.5466L4.53757 50.5612L4.55677 50.5701L5.49579 51.0028L5.49848 51.004L5.50122 51.0052L6.14147 51.2648L6.15239 51.2692L6.16391 51.2715L7.01757 51.4446L7.01867 51.4448L7.01978 51.445L7.9588 51.6181L7.95973 51.6183L7.96066 51.6185L8.72891 51.7483L8.73941 51.75H8.75H9.43293H9.44351L9.45401 51.7483L10.2223 51.6185L10.2243 51.6181L10.2263 51.6177L11.08 51.4446L11.0878 51.4431L11.0953 51.4405L11.8636 51.1808L11.8662 51.18L11.8688 51.179L12.7651 50.8329L12.7793 50.8273L12.7918 50.8187L13.6028 50.2562L13.6093 50.2517L13.6152 50.2464L14.338 49.5997L14.3408 49.5974L14.5941 49.3833L14.6016 49.3771L14.6079 49.3699L14.9494 48.9805L14.95 48.9797L15.246 48.6369L15.7979 48.0774L15.8126 48.0625L15.8219 48.0436L15.9056 47.8738L16.0596 47.6007L16.2905 47.4445L16.3145 47.4284L16.3293 47.4033L16.4529 47.1944L16.6094 46.9962L16.8117 46.8321L16.8172 46.8276L16.8223 46.8226L16.993 46.6495L16.998 46.6444L17.0024 46.6388L17.1688 46.4281L17.3772 46.2168L17.3836 46.2102L17.389 46.2029L17.5171 46.0298L17.524 46.0205L17.5292 46.01L17.6123 45.8413L17.7378 45.6293L17.7476 45.6127L17.7523 45.594L17.7929 45.4294L17.8687 45.2372L17.9866 45.0779L17.9976 45.063L18.004 45.0456L18.1297 44.7059L18.2512 44.4595L18.4175 44.2066L18.42 44.2029L18.4221 44.199L18.5865 43.9075L18.8769 43.5711L18.8844 43.5623L18.8903 43.5524L19.0183 43.336L19.0209 43.3317L19.0231 43.3273L19.1441 43.082L19.3899 42.7912L19.3986 42.7809L19.4051 42.7689L19.6523 42.3093L19.9766 41.9806L20.2283 41.768L20.2328 41.7642L20.2369 41.7601L20.493 41.5005L20.502 41.4914L20.509 41.4807L20.7611 41.0974L20.8983 40.933L20.832 41.2521L20.8293 41.2653V41.2788V41.9544L20.6225 42.751L20.3701 43.3479L20.3669 43.3554L20.3647 43.3634L20.194 43.9692L20.1937 43.9699L20.1935 43.9706L20.0668 44.4418L19.8564 45.0391L19.6018 45.6412L19.5991 45.6476L19.5971 45.6541L19.4302 46.2041L19.1803 46.6686L19.1724 46.6832L19.1685 46.6993L19.0433 47.2066L18.797 47.7479L18.4191 48.3011L18.4114 48.3124L18.4062 48.3251L18.1954 48.8381L17.9513 49.2916L17.7509 49.4947L17.7345 49.5114L17.7249 49.5328L17.5152 50.0005L17.2213 50.4688L17.2148 50.479L17.2104 50.4903L16.8726 51.3465L16.4506 52.0736L16.4456 52.082L16.4421 52.0912L16.186 52.7403L15.9299 53.3893L15.9241 53.4041L15.9219 53.4199L15.7939 54.3719L15.7927 54.3806V54.3894V54.9519V55.601V56.1635V56.726V56.7362L15.7942 56.7462L15.9223 57.5683L15.9228 57.5716L15.9235 57.5748L16.0942 58.3969L16.0962 58.4065L16.0997 58.4158L16.3558 59.1081L16.3619 59.1248L16.3723 59.1393L16.8418 59.7883L16.8423 59.7889L16.8427 59.7894L17.2268 60.3087L17.2285 60.3108L17.2302 60.313L17.6143 60.7889L17.6302 60.8086L17.6521 60.8207L18.1054 61.0713L18.5192 61.4909L18.5357 61.5075L18.5567 61.5173L19.0196 61.7305L19.4402 61.9863L19.4425 61.9877L19.4448 61.989L19.9093 62.2458L20.1607 62.4157L20.1749 62.4253L20.1912 62.4308L20.6871 62.5985L20.929 62.7618L20.9315 62.7636L20.9341 62.7651L21.1475 62.8949L21.1676 62.9071L21.1905 62.9114L21.66 62.9979L21.6714 63H21.6829H22.1098H22.4085H22.6646H22.6787L22.6924 62.9969L23.0765 62.9103L23.0782 62.91L23.0799 62.9096L23.4138 62.8249L23.7476 62.7826L23.7553 62.7817L23.7628 62.7798L24.1042 62.6932L24.1127 62.6911L24.1207 62.6879L24.3341 62.6013L24.3465 62.5963L24.3576 62.5888L24.61 62.4182L24.905 62.2473L24.9199 62.2387L24.932 62.2264L25.1881 61.9668L25.1984 61.9563L25.2061 61.9438L25.633 61.2515L25.635 61.2482L25.6368 61.2448L25.8929 60.7689L25.8991 60.7574L25.9029 60.7449L26.0736 60.1824L26.0793 60.1638V60.1442V59.625V59.149V59.1374L26.0772 59.1258L25.9919 58.6499L25.9906 58.6427L25.9885 58.6358L25.8605 58.2031L25.8565 58.1896L25.8497 58.1774L25.6363 57.788L25.6338 57.7833L25.6309 57.779L25.2041 57.1299L25.192 57.1114L25.1744 57.0981L24.8329 56.8385L24.8286 56.8352L24.824 56.8322L24.4825 56.6159L24.4696 56.6077L24.4551 56.6028L24.071 56.473L24.0569 56.4683L24.0421 56.4669L23.5726 56.4236L23.4329 56.4107V56.5529V56.7692V56.8282L23.4766 56.8669L23.8181 57.1698L24.1563 57.4698L24.3947 57.7115L24.5027 57.9304L24.5422 58.3702L24.5031 58.8062C24.4755 58.8545 24.4384 58.9186 24.4035 58.9764C24.383 59.0106 24.3636 59.0417 24.3477 59.066C24.3388 59.0795 24.3326 59.0885 24.3287 59.0939C24.3244 59.0999 24.323 59.1016 24.3241 59.1005C24.2871 59.1381 24.1173 59.3374 24.0301 59.4404L23.7978 59.5974L23.4258 59.765L23.2308 59.8441L22.871 59.8846H22.5793H22.2876L21.9263 59.8439L21.6024 59.7208L21.5999 59.7198L21.4014 59.6393L21.1598 59.4761L21.1564 59.4737L20.8755 59.2703L20.7158 59.068L20.7114 59.0623L20.7064 59.0572L20.5004 58.8485L20.3073 58.5744L20.2295 58.2586L20.189 57.9715V57.6346V57.375V57.0721V56.7692V56.5177L20.2297 56.1873L20.3121 55.853L20.3132 55.8488L20.3971 55.5517L20.3975 55.5501L20.5251 55.119L20.5263 55.1151L20.5272 55.1109L20.6503 54.5701L20.9336 54.1189L21.1 53.908L21.1053 53.9012L21.1098 53.8937L21.2378 53.6774L21.2404 53.6731L21.2426 53.6686L21.3258 53.5L21.4431 53.3016L21.6455 53.0966L21.6504 53.0915L21.6548 53.0859L21.8256 52.8695L21.831 52.8627L21.8354 52.8553L21.9634 52.6389L22.0859 52.4319L22.335 52.1373L22.5911 51.8345L22.5925 51.8328L22.5939 51.8311L22.7646 51.6147L22.7713 51.6063L22.7765 51.5967L22.9892 51.2086L22.99 51.2072L23.3307 50.6028L23.3336 50.5977L23.3361 50.5922L23.5495 50.1162L23.5507 50.1135L23.5518 50.1107L23.6372 49.8944L23.6386 49.8908L23.6398 49.8872L23.7239 49.6312L23.8079 49.4184L23.8103 49.4123L23.8121 49.4058L23.8954 49.1102L24.106 48.598L24.1083 48.5922L24.1102 48.5862L24.281 48.0237L24.2824 48.0188L24.2835 48.0137L24.3684 47.6269L24.5345 46.9952L24.8262 46.4461L24.8303 46.4384L24.8333 46.4302L24.9613 46.0841L25.0883 45.7408L25.2153 45.4406L25.2166 45.4372L25.2179 45.4338L25.3887 44.9579L25.3963 44.9363V44.9135V44.5673V44.2385L25.5199 43.7794L25.5202 43.778L25.5205 43.7767L25.6059 43.4305L25.6098 43.4151V43.399V43.1143L25.6902 42.8289L25.6951 42.8114V42.7933V42.4167L25.778 41.9966L25.7805 41.984V41.9712V41.633L25.8217 41.2986L25.9065 40.8261L25.9067 40.8251L25.9068 40.8243L25.9922 40.305L25.9926 40.3023L25.9929 40.2998L26.0356 39.9536L26.0776 39.6136L26.1616 39.23L26.1633 39.2225L26.164 39.2148L26.2064 38.7849L26.2914 38.1818L26.2917 38.1798L26.2919 38.1778L26.3337 37.7958L26.4582 37.2491L26.5833 36.911L26.5948 36.8799L26.5902 36.847L26.5498 36.5604L26.5904 36.1894L26.6307 35.9039L26.7104 35.702L26.7117 35.6985L26.7129 35.6949L26.7928 35.4518L26.8687 35.3364L26.8732 35.3297L26.8768 35.3225L26.9621 35.1494L26.9645 35.1446L26.9665 35.1395L27.0208 35.0018L29.3308 34.921L29.3707 35.0021L29.4529 35.5021L29.4536 35.506L29.4545 35.5099L29.5825 36.0724L29.5865 36.0898L29.5949 36.1054L29.8467 36.5734L29.9669 36.8984L30.0502 37.4476L30.0512 37.4536L30.0526 37.4594L30.1768 37.9631V38.6827V38.7037L30.1834 38.7237L30.3476 39.223V40.1106V40.1167L30.3482 40.1229L30.4335 41.0315L30.434 41.0367L30.4349 41.0418L30.5629 41.7774L30.5643 41.7853L30.5666 41.793L30.7357 42.35L30.861 42.9424L30.9456 43.9295L30.9461 43.9346L30.9468 43.9396L31.0322 44.4589L31.0342 44.4706L31.0382 44.4819L31.2052 44.9475L31.2886 45.4126L31.289 45.4146L31.2894 45.4166L31.4174 46.0224L31.4203 46.0356L31.4256 46.0479L31.7632 46.8177L31.888 47.2815L31.8887 47.2842L32.058 47.971L32.0587 47.9738L32.2715 48.923L32.2726 48.9277L32.2739 48.9324L32.6154 50.0574L32.6173 50.0634L32.6196 50.0692L32.833 50.5884L32.8355 50.5944L32.8385 50.6L33.1372 51.1625L33.138 51.164L33.1389 51.1653L33.4803 51.7711L33.4825 51.775L33.4849 51.7787L33.8228 52.2925L34.2023 53.0192L34.4569 53.5785L34.4585 53.5821L34.4604 53.5856L34.7592 54.1481L34.7621 54.1534L34.7654 54.1585L34.9297 54.4082L35.051 54.6952L35.1346 54.9497L35.1384 54.9612L35.1442 54.9717L35.3494 55.3462L35.4723 55.8447L35.5569 56.3165L35.5585 56.3256L35.5615 56.3343L35.6402 56.5739V56.9856V57.375V57.7484L35.5614 58.0682L35.4011 58.4339L35.1537 58.7683L35.1467 58.7776L35.1415 58.7881L35.0655 58.9423L34.8667 59.1438L34.8578 59.1528L34.8508 59.1636L34.6899 59.4083L34.4235 59.6397L34.0632 59.7615L34.0596 59.7627L34.0561 59.7641L33.6522 59.9279H33.25H32.9939H32.7057L32.4641 59.8871L32.4601 59.8863L32.2675 59.8472L32.0268 59.7252L32.022 59.7228L32.0171 59.7208L31.8281 59.6442L31.7186 59.5332L31.7136 59.5282L31.708 59.5237L31.5002 59.3551L31.394 59.2473L31.2344 58.8835L31.1159 58.563V58.2564L31.194 57.9396L31.3142 57.6959L31.4781 57.4049L31.6409 57.1987L31.9378 56.8547L32.2071 56.5428L31.8104 56.6433L31.6397 56.6866L31.4689 56.7299L31.4605 56.7319L31.4525 56.7352L31.239 56.8218L31.0256 56.9083L31.0099 56.9147L30.9963 56.925L30.8256 57.0548L30.824 57.056L30.8225 57.0573L30.6122 57.2279L30.609 57.2304L30.2707 57.4875L30.2496 57.5036L30.2364 57.527L30.0657 57.8298L30.062 57.8363L30.0591 57.8431L29.9311 58.146L29.9264 58.1571L29.9238 58.169L29.8384 58.5584L29.7531 58.9478L29.7525 58.9503L29.752 58.9528L29.6667 59.4287L29.6646 59.4402V59.4519V59.9712V59.972V59.9729V59.9737V59.9745V59.9754V59.9763V59.9771V59.978V59.9789V59.9798V59.9807V59.9815V59.9824V59.9834V59.9842V59.9851V59.986V59.9869V59.9879V59.9887V59.9897V59.9905V59.9915V59.9924V59.9933V59.9943V59.9952V59.9962V59.997V59.998V59.9989V59.9999V60.0008V60.0018V60.0027V60.0037V60.0046V60.0056V60.0065V60.0076V60.0085V60.0095V60.0104V60.0115V60.0124V60.0135V60.0144V60.0154V60.0164V60.0174V60.0184V60.0194V60.0204V60.0214V60.0224V60.0234V60.0245V60.0254V60.0265V60.0275V60.0285V60.0296V60.0306V60.0316V60.0326V60.0336V60.0347V60.0357V60.0368V60.0378V60.0388V60.04V60.041V60.042V60.0431V60.0441V60.0451V60.0463V60.0473V60.0484V60.0495V60.0505V60.0516V60.0527V60.0537V60.0548V60.0559V60.057V60.058V60.0592V60.0602V60.0613V60.0624V60.0635V60.0646V60.0657V60.0668V60.0679V60.0689V60.0701V60.0712V60.0723V60.0734V60.0745V60.0756V60.0767V60.0779V60.0789V60.08V60.0811V60.0823V60.0834V60.0845V60.0856V60.0868V60.0879V60.089V60.0901V60.0913V60.0924V60.0935V60.0946V60.0958V60.097V60.0981V60.0992V60.1004V60.1015V60.1026V60.1038V60.1049V60.1061V60.1072V60.1084V60.1095V60.1107V60.1118V60.113V60.1141V60.1152V60.1165V60.1176V60.1187V60.1199V60.121V60.1222V60.1234V60.1245V60.1257V60.1268V60.128V60.1292V60.1303V60.1315V60.1326V60.1338V60.135V60.1362V60.1373V60.1385V60.1396V60.1409V60.142V60.1432V60.1443V60.1455V60.1467V60.1479V60.149V60.1502V60.1513V60.1525V60.1537V60.1549V60.156V60.1572V60.1584V60.1595V60.1608V60.1619V60.1631V60.1642V60.1654V60.1666V60.1678V60.169V60.1701V60.1713V60.1724V60.1737V60.1749V60.176V60.1772V60.1783V60.1795V60.1807V60.1819V60.1831V60.1842V60.1854V60.1866V60.1878V60.1889V60.1901V60.1913V60.1924V60.1936V60.1948V60.196V60.1971V60.1983V60.1994V60.2007V60.2018V60.203V60.2041V60.2053V60.2065V60.2077V60.2088V60.21V60.2111V60.2123V60.2135V60.2146V60.2158V60.2169V60.2181V60.2193V60.2204V60.2216V60.2227V60.2239V60.2251V60.2262V60.2274V60.2285V60.2296V60.2309V60.232V60.2331V60.2342V60.2354V60.2366V60.2377V60.2388V60.24V60.2412V60.2423V60.2434V60.2445V60.2457V60.2469V60.248V60.2491V60.2502V60.2514V60.2525V60.2536V60.2547V60.2559V60.257V60.2581V60.2592V60.2604V60.2615V60.2626V60.2637V60.2649V60.266V60.2671V60.2682V60.2693V60.2704V60.2715V60.2727V60.2737V60.2748V60.2759V60.277V60.2781V60.2792V60.2803V60.2814V60.2825V60.2836V60.2847V60.2857V60.2868V60.2879V60.289V60.2901V60.2911V60.2922V60.2933V60.2944V60.2954V60.2965V60.2975V60.2986V60.2997V60.3007V60.3017V60.3028V60.3039V60.3049V60.306V60.307V60.308V60.3091V60.3101V60.3112V60.3122V60.3132V60.3142V60.3152V60.3163V60.3173V60.3183V60.3193V60.3203V60.3214V60.3223V60.3234V60.3244V60.3254V60.3264V60.3274V60.3284V60.3293V60.3304V60.3313V60.3323V60.3333V60.3343V60.3352V60.3362V60.3372V60.3382V60.3391V60.3401V60.341V60.342V60.3429V60.3439V60.3448V60.3458V60.3467V60.3477V60.3486V60.3495V60.3505V60.3513V60.3523V60.3532V60.3541V60.355V60.3559V60.3569V60.3577V60.3587V60.3595V60.3604V60.3614V60.3622V60.3631V60.364V60.3648V60.3658V60.3666V60.3675V60.3684V60.3692V60.37V60.3709V60.3717V60.3726V60.3735V60.3743V60.3751V60.376V60.3768V60.3776V60.3784V60.3793V60.38V60.3808V60.3817V60.3825V60.3833V60.3841V60.3849V60.3857V60.3865V60.3872V60.388V60.3888V60.3896V60.3903V60.391V60.3918V60.3926V60.3933V60.3941V60.3948V60.3955V60.3963V60.397V60.3977V60.3985V60.3992V60.3999V60.4006V60.4013V60.402V60.4027V60.4034V60.4041V60.4048V60.4054V60.4061V60.4068V60.4075V60.4081V60.4088V60.4094V60.4101V60.4107V60.4114V60.412V60.4126V60.4133V60.4139V60.4145V60.4151V60.4157V60.4163V60.4169V60.4175V60.4181V60.4186V60.4193V60.4199V60.4204V60.421V60.4215V60.4221V60.4226V60.4232V60.4237V60.4243V60.4248V60.4253V60.4258V60.4263V60.4269V60.4274V60.4279V60.4284V60.4289V60.4294V60.4298V60.4303V60.4308V60.4313V60.4317V60.4322V60.4327V60.4331V60.4335V60.434V60.4344V60.4348V60.4353V60.4357V60.436V60.4365V60.4369V60.4373V60.4377V60.438V60.4384V60.4388V60.4392V60.4395V60.4398V60.4402V60.4405V60.4409V60.4412V60.4416V60.4419V60.4422V60.4425V60.4428V60.4431V60.4434V60.4437V60.444V60.4443V60.4445V60.4448V60.445V60.4453V60.4456V60.4458V60.446V60.4463V60.4465V60.4467V60.4469V60.4471C29.6646 60.4757 29.6736 60.5015 29.6768 60.5105L29.6769 60.511C29.6784 60.515 29.6799 60.5192 29.6815 60.5234C29.6828 60.527 29.6843 60.5305 29.6857 60.5341C29.6875 60.5384 29.6893 60.5427 29.6911 60.547C29.6922 60.5495 29.6933 60.5521 29.6945 60.5546C29.7075 60.5841 29.7248 60.6194 29.743 60.6551C29.7795 60.7264 29.8228 60.8055 29.8518 60.857L29.8523 60.8577L30.0649 61.2457L30.0674 61.2504L30.0703 61.2547L30.241 61.5143L30.2441 61.519L30.2476 61.5234L30.4183 61.7397L30.4272 61.751L30.4383 61.76L30.6406 61.9241L30.8025 62.1292L30.8149 62.1449L30.8314 62.1561L31.0828 62.326L31.292 62.4956L31.3025 62.5042L31.3147 62.5104L31.6561 62.6834L31.6622 62.6865L31.6684 62.6888L32.0099 62.8186L32.0167 62.8213L32.0238 62.823L32.3653 62.9096L32.3806 62.9135H32.3963H32.5513L32.8775 62.9961L32.8927 63H32.9085H33.2073H33.2171L33.2268 62.9985L33.7789 62.9123L34.1534 62.8702H34.4878H34.4957L34.5037 62.8692L34.8451 62.8259L34.8511 62.8252L34.857 62.8238L35.2412 62.7373L35.2601 62.733L35.2769 62.7233L35.563 62.5576L35.9758 62.4321L35.9891 62.428L36.0012 62.4211L36.3829 62.2062L36.8073 61.9911L36.8116 61.9889L36.8159 61.9863L37.0293 61.8565L37.0367 61.852L37.0434 61.8465L37.2568 61.6735L37.2624 61.669L37.2674 61.6639L37.6024 61.3243L37.7659 61.2L37.7817 61.188L37.7933 61.1716L38.0004 60.8775L38.1637 60.712L38.2918 60.5822L38.3008 60.5731L38.3078 60.5624L38.4785 60.3028L38.4829 60.296L38.4865 60.2888L38.6146 60.0292L38.6162 60.0258L38.6177 60.0223L38.7403 59.7323L38.9457 59.4408L38.9499 59.4349L38.9534 59.4284L39.1668 59.039L39.1696 59.0339L39.1719 59.0287L39.3414 58.642L39.4682 58.385L39.4712 58.3788L39.4735 58.3725L39.6016 58.0264L39.6034 58.0214L39.6048 58.0164L39.6902 57.7135L39.7755 57.4107L39.7785 57.4002L39.7797 57.3894L39.8215 57.0086L39.9047 56.6709L39.9085 56.6554V56.6394V56.2067V55.8606V55.5577V55.2548V54.9087V54.6058V54.3894V54.1298V53.8702V53.6106V53.5915L39.9032 53.5733L39.7751 53.1406L39.7738 53.1364L39.7723 53.1323L39.6487 52.798L39.6081 52.5507L39.6067 52.5427L39.6044 52.5348L39.4763 52.1021L39.4757 52.1002L39.4751 52.0984L39.3898 51.8388L39.3886 51.8352L39.3872 51.8316L39.2165 51.3989L39.2155 51.3967L39.2146 51.3944L39.0454 51.0085L38.9186 50.6659L38.9179 50.6638L38.917 50.6616L38.7036 50.1424L38.7008 50.1356L38.6973 50.1293L38.4839 49.7399L38.4822 49.7369L38.4805 49.7341L38.2704 49.3932L38.1024 49.0525L38.0996 49.047L38.0964 49.0418L37.883 48.6956L37.8791 48.6892L37.8744 48.6833L37.7104 48.4755L37.5035 48.0981L37.3341 47.7544L37.3305 47.7472L37.326 47.7405L37.07 47.3511L37.068 47.348L37.0659 47.3452L36.9503 47.189L36.8288 46.8196L36.828 46.8172L36.8272 46.815L36.764 46.6442H36.9634V46.3846H36.6433L36.5661 46.2803L36.4873 46.0407L36.4868 46.039L36.4862 46.0373L36.3173 45.5664L36.1913 45.0983L36.1906 45.0956L36.0205 44.406L36.0194 44.4012L36.0178 44.3965L35.8471 43.8773L35.8459 43.8736L35.8445 43.8701L35.6807 43.4549L35.6397 42.9978L35.6385 42.9849L35.6349 42.9723L35.5068 42.5396L35.3819 42.1178L35.2988 41.401V40.976V40.6405L35.3392 40.3946L35.6312 40.7176L35.6331 40.7196L35.635 40.7216L35.9765 41.0678L36.3542 41.4506L36.7329 41.9625L36.7384 41.9699L36.7448 41.9764L37.2102 42.4482L37.6308 42.9599L38.0977 43.6052L38.0979 43.6056L38.4376 44.079L38.8585 44.7191L39.2818 45.5773L39.2847 45.5831L39.2881 45.5886L39.7969 46.4051L40.0501 46.9186L40.0556 46.9298L40.0631 46.9398L40.49 47.5023L40.492 47.5049L40.4942 47.5075L41.0064 48.1133L41.0075 48.1145L41.0085 48.1156L41.3926 48.5483L41.4005 48.5572L41.4097 48.5644L41.9636 48.9963L41.9646 48.9971L42.5575 49.4694L43.0236 49.8989L43.0275 49.9025L43.0316 49.9058L43.5865 50.3385L43.5963 50.3461L43.6074 50.3517L44.2873 50.6963L44.2903 50.6979L44.9275 51.0425L44.9474 51.0532L44.9697 51.0564L45.8612 51.1855L46.6247 51.3575L46.6384 51.3606H46.6524H47.6341H47.6469L47.6592 51.3581L49.1531 51.0552L49.1627 51.0533L49.1718 51.0499L50.1109 50.7038L50.1293 50.6969L50.1448 50.6849L50.8619 50.129L51.6633 49.7014L51.6741 49.6957L51.6836 49.6879L52.5373 48.9956L52.5572 48.9795L52.5695 48.9568L53.037 48.0951L53.6325 47.1466L53.6352 47.1423L53.6376 47.1377L54.0217 46.4021L54.0333 46.3799L54.0359 46.3549L54.1213 45.5328L54.122 45.5261V45.5192V44.6106V44.351V44.0048V43.6154V43.5288V43.3125V43.3045L54.1209 43.2964L54.0782 42.9503L54.0773 42.9425L54.0754 42.9348L54.0327 42.7618L53.9901 42.5887L53.9889 42.5838L53.9873 42.5792L53.902 42.3196L53.9003 42.3144L53.8982 42.3094L53.7702 42.0065L53.7686 42.0031L53.767 41.9996L53.639 41.74L53.6296 41.7211L53.615 41.7063L53.4483 41.5373L53.2386 41.2823L53.2349 41.2777L53.2308 41.2736L53.0174 41.0572L53.0124 41.0522L53.0068 41.0477L52.799 40.8791L52.6333 40.7111L52.5052 40.5813L52.4987 40.5748L52.4915 40.5692L52.3207 40.4394L52.15 40.3096L51.9793 40.1798L51.967 40.1705L51.9529 40.1643L51.6541 40.0345L51.6466 40.0313L51.6388 40.0291L51.34 39.9425L51.3351 39.941L51.33 39.94L51.1166 39.8967L51.1131 39.896L51.1096 39.8955L50.8108 39.8523L50.8018 39.851H50.7927H50.4939H50.3232H50.0671H49.8963H49.6829H49.6688L49.6552 39.8541L49.271 39.9406L49.2609 39.9429L49.2512 39.9468L49.0378 40.0333L48.8244 40.1198L48.8068 40.127L48.792 40.139L48.5785 40.3121L48.5775 40.3129L48.5766 40.3138L48.3224 40.5285L48.3205 40.5301L48.109 40.7015L48.1035 40.7061L48.0985 40.7111L47.885 40.9274L47.8801 40.9325L47.8756 40.9381L47.7049 41.1545L47.6964 41.1652L47.6903 41.1775L47.6072 41.3461L47.4817 41.5582L47.4691 41.5793L47.4651 41.6036L47.4224 41.8632L47.4207 41.8739V41.8846V42.101V42.4471V42.4564L47.422 42.4655L47.4647 42.7683L47.465 42.7698L47.4651 42.7714L47.5078 43.031L47.509 43.0382L47.511 43.0453L47.5964 43.3482L47.6019 43.3676L47.613 43.3845L47.7837 43.6441L47.8217 43.7019H47.8902H48.061H48.189V43.5721V43.226V42.8798V42.5337V42.3532L48.2988 42.1678L48.4253 41.954L48.5913 41.7018L48.7461 41.5055L48.979 41.3481L49.2232 41.2242L49.4088 41.149H49.5976H49.939H50.3232H50.5546L50.7402 41.2242L50.9844 41.3481L51.2304 41.5143L51.2339 41.5167L51.5292 41.7307L51.5309 41.7319L51.5326 41.733L51.7841 41.903L51.9752 42.058L52.0914 42.2543L52.0996 42.268L52.1106 42.2793L52.2276 42.3978L52.3403 42.5883L52.4197 42.8296L52.5427 43.3285V44.0048V44.2957L52.4204 44.9565L52.0882 45.5879L52.0859 45.5924L52.0839 45.597L51.7968 46.2621L51.2415 46.7446L50.5838 46.953L50.5712 46.957L50.5598 46.9635L50.2046 47.1635H49.6829H49.128H48.5305H47.993L47.2475 46.9535L46.7042 46.7417L46.2976 46.5355L45.9761 46.2504L45.7691 45.9987L45.7538 45.98L45.7329 45.9683L45.3551 45.7555L45.0709 45.5497L44.7369 45.2111L44.4381 44.9082L44.0967 44.562L43.7586 44.2194L43.5058 43.9203L43.5025 43.9165L43.4991 43.913L43.2003 43.6101L42.8251 43.2298L42.4932 42.725L42.3246 42.426L42.3161 42.4109L42.304 42.3986L42.08 42.1716L42.1105 42.0169L41.929 41.9802L41.7078 41.7933L41.5513 41.5951L41.3888 41.3067L41.2222 40.9267L41.0955 40.5842L41.091 40.5721L41.0842 40.561L40.874 40.2201L40.6633 39.7929L40.5369 39.5367L40.4116 39.2403L40.4104 39.2373L40.2409 38.8076L40.237 38.7979L40.2317 38.789L40.1109 38.5849L40.0315 38.3431L40.1927 38.5474L40.2226 38.5853L40.2698 38.5941L40.7393 38.6806L40.7613 38.6847L40.7833 38.681L41.285 38.5962H41.8293H41.8372L41.8451 38.5951L42.5201 38.5096H43.5366H43.5449L43.5531 38.5085L44.5349 38.3787L44.5471 38.3771L44.5588 38.3731L45.3244 38.1144L45.9193 37.9421L45.9228 37.9411L45.9262 37.9399L46.9079 37.5938L46.9233 37.5883L46.9369 37.5792L47.321 37.3195L47.3227 37.3184L47.3244 37.3172L47.9186 36.8868L47.922 36.8845L48.1747 36.7138L48.4308 36.5407L48.8106 36.284L49.1902 36.0702L49.1948 36.0677L49.1991 36.0647L49.7113 35.7186L49.7159 35.7155L49.7202 35.7119L50.1471 35.3658L50.1526 35.3613L50.1576 35.3562L50.752 34.7538L51.3887 34.1943L51.3892 34.1939L52.7551 32.9823L52.7633 32.9751L52.7701 32.9665L53.8757 31.5871L54.0418 31.4187L54.0508 31.4097L54.0578 31.3989L54.2285 31.1393L54.231 31.1356L54.2331 31.1317L54.4026 30.8311L54.6147 30.4871L54.6161 30.4849L54.6172 30.4827L54.788 30.1798L54.7884 30.1791L54.7887 30.1784L55.0022 29.789L55.0035 29.7865L55.0048 29.784L55.2166 29.3546L55.5563 28.7519L55.5581 28.7488L55.5597 28.7456L55.7304 28.3994L55.7344 28.3911L55.7373 28.3824L55.8654 27.9929L55.8673 27.9871L55.8687 27.9811L55.9968 27.4186L56 27.4042V27.3894V26.4808V26.0048V25.7019V25.2692V25.2639L55.9996 25.2584L55.9569 24.7392L55.9566 24.7366L55.9563 24.7339L55.9136 24.3878L55.9131 24.3831L55.9122 24.3784L55.8268 23.9457L55.8245 23.934L55.8201 23.923L55.6494 23.4903L55.6474 23.4852L55.645 23.4804L55.4316 23.0477L55.4271 23.0386L55.4213 23.0303L55.2079 22.7274L55.2046 22.7228L55.2009 22.7184L54.9475 22.4189L54.9448 22.4155L54.7768 22.2026L54.776 22.2015L54.7752 22.2006L54.5618 21.941L54.5581 21.9364L54.554 21.9322L54.3456 21.721L54.1792 21.5103L54.1698 21.4983L54.1579 21.4889L53.7737 21.186L53.7666 21.1804L53.7586 21.1758L53.4599 21.0027L53.4524 20.9984L53.4444 20.9951L53.1283 20.8653L53.1131 20.8591L53.097 20.8569L52.7728 20.8136L52.7703 20.8133L52.7677 20.813L52.2982 20.7698L52.2924 20.7692H52.2866H51.9024H51.6037H51.5879L51.5726 20.7731L51.2311 20.8597L51.2227 20.8617L51.2146 20.865L50.7878 21.0381L50.767 21.0466L50.7503 21.0616L50.3661 21.4078L50.3634 21.4103L50.3606 21.413L50.0192 21.7591L50.0102 21.7682L50.0032 21.779L49.7471 22.1684L49.7446 22.1721L49.7425 22.176L49.5718 22.4789L49.5673 22.4867L49.564 22.4951L49.4786 22.7114L49.4695 22.7346V22.7596V23.0625V23.1923V23.3221V23.3431L49.4761 23.3631L49.5188 23.4929L49.5217 23.5017L49.5257 23.51L49.611 23.6831L49.6163 23.6935L49.6232 23.7029L49.7512 23.876L49.8793 24.049L49.889 24.0622L49.9017 24.0725L50.1151 24.2456L50.3232 24.4143V24.1442V24.0144V23.7275L50.362 23.57L50.3628 23.5669L50.3634 23.5639L50.4061 23.3476L50.4454 23.1483L50.5231 22.9908L50.6938 22.6446L50.8092 22.4105L51.0007 22.2552L51.0063 22.2507L51.0113 22.2457L51.182 22.0726L51.3463 21.906L51.4891 21.7975L51.6317 21.7613L51.8298 21.7212H52.0605L52.2615 21.7619L52.2635 21.7623L52.2655 21.7627L52.5166 21.8051L52.6776 21.8459L52.7723 21.8779L52.8789 21.986L53.007 22.1159L53.1777 22.2889L53.3395 22.4529L53.4179 22.572L53.4198 22.575L53.422 22.5779L53.55 22.751L53.552 22.7536L53.5541 22.7562L53.7659 23.0138L53.7675 23.0158L53.9312 23.2233L54.0549 23.4322L54.0583 23.4379L54.0622 23.4433L54.1863 23.611L54.3022 23.8069L54.383 24.0933L54.3838 24.096L54.3846 24.0987L54.4634 24.3383V24.6635V25.1394V25.3558V25.6154V25.9455L54.3881 26.2508L54.2756 26.4029L54.2708 26.4094L54.2669 26.4164L54.0983 26.7154L53.8493 27.094L53.5577 27.4319L53.5561 27.4337L53.1368 27.9012L52.1193 28.7609L52.1147 28.7646L52.1106 28.7688L51.9013 28.981L51.6498 29.1936L51.6491 29.1941L51.6484 29.1947L51.3496 29.4543L51.3491 29.4548L51.3486 29.4552L51.0104 29.7553L51.0071 29.7581L50.5449 30.1414L49.9976 30.5255L49.5743 30.7829L49.5734 30.7836L49.5724 30.7842L49.2309 31.0005L49.2293 31.0015L49.2278 31.0026L48.9748 31.1736L48.9717 31.1757L48.641 31.3851L48.2678 31.5532L48.2651 31.5544L47.7556 31.7696L47.7537 31.7704L47.7519 31.7712L47.285 31.9863L47.0744 32.0718L47.0568 32.0789L47.042 32.091L46.8546 32.2429L46.6314 32.2806L46.6215 32.2823L46.612 32.2855L46.3756 32.3654H46.0549H45.7134H45.5427H45.4274L45.2263 32.3246L45.2139 32.3221H45.2012H45.0463L44.8908 32.2827L44.7338 32.2429L44.5827 32.1663L44.4613 32.0843L44.4546 32.0798L44.4475 32.0762L44.2839 31.9933L44.0344 31.8247L44.0278 31.8202L44.0207 31.8166L43.8686 31.7395L43.7189 31.5878L43.6003 31.4275L43.4782 31.2212L43.361 30.9835L43.3232 30.7537V30.5141L43.3636 30.2269L43.44 29.9174L43.9748 29.2917L43.9771 29.2891L43.9791 29.2864L44.5767 28.5076L44.5857 28.4958L44.5919 28.4823L45.1041 27.3573L45.1054 27.3545L45.1065 27.3518L45.6613 25.9672L45.6616 25.9665L45.6619 25.9657L46.1314 24.7542L46.1366 24.7407L46.1388 24.7265L46.3949 23.039L46.3963 23.0292V23.0192V21.4615V20.0337V18.0433V18.0331L46.3948 18.023L46.2683 17.2109V16.1827V15.4471V15.4311L46.2645 15.4156L46.0947 14.7275L45.9248 13.7797L45.9244 13.778L45.9241 13.7764L45.7107 12.7379L45.708 12.7249L45.7028 12.7127L45.276 11.7177V11.7175L44.7211 10.4196L44.7203 10.4176L44.7194 10.4156L44.3353 9.59348L44.3338 9.59045L44.3323 9.58751L44.0335 9.02501L44.0325 9.02302L44.0314 9.02112L43.7326 8.5019L43.7292 8.49603L43.7252 8.49055L43.2574 7.84386L42.8334 7.1992L42.4932 6.6387L42.4871 6.62866L42.4793 6.6199L42.099 6.19152L41.7183 5.67692L41.7115 5.66785L41.7034 5.66011L41.0205 5.01107L41.0168 5.00759L41.0129 5.00441L40.3744 4.48656L39.7784 3.96875L39.7746 3.96537L39.7704 3.96233L39.3009 3.61617L39.3 3.61548L39.299 3.61482L38.8745 3.31359L38.8722 3.31193L38.2343 2.83763L38.233 2.83667L38.2317 2.83574L37.25 2.14344L37.2435 2.13887L37.2365 2.13513L36.4255 1.70244L36.4207 1.69984L36.4155 1.69767L35.6046 1.35151L35.6029 1.35082L35.6013 1.35017L34.833 1.04729L34.827 1.04493L34.8208 1.0432L34.0525 0.82685L34.052 0.826689L33.5825 0.696881L33.5782 0.695705L33.5739 0.694829L32.9366 0.565625L32.4274 0.436568L32.4225 0.435311L32.4174 0.434459L31.652 0.305177L31.6491 0.304651L30.7557 0.1321L30.752 0.13139L30.7483 0.130898L29.7666 0.00109032L29.7583 0H29.75H28.5122H27.4451ZM24.7392 58.9105C24.7103 58.9618 24.6648 59.0409 24.6221 59.1118L24.7392 58.9105ZM24.6221 59.1118C24.6007 59.1472 24.5795 59.1815 24.561 59.2096L24.6221 59.1118ZM24.561 59.2096C24.5453 59.2336 24.5243 59.2647 24.5052 59.2841L24.561 59.2096ZM24.5052 59.2841C24.4756 59.3141 24.3011 59.5188 24.2131 59.6229L24.5052 59.2841ZM29.9207 60.4308C29.9216 60.4329 29.9226 60.4353 29.9237 60.4382L29.9207 60.4308ZM29.9237 60.4382C29.925 60.4412 29.9265 60.4447 29.9282 60.4486L29.9237 60.4382ZM29.9282 60.4486C29.9383 60.4714 29.9531 60.5016 29.9704 60.5356L29.9282 60.4486ZM29.9704 60.5356C30.0049 60.6031 30.0466 60.6794 30.0746 60.7289L29.9704 60.5356Z" fill="#5E81AC" fill-opacity="0.7"/>
<path d="M19.2499 31.9325C23.8467 31.9325 27.5731 28.0968 27.5731 23.3652C27.5731 18.6336 23.8467 14.7979 19.2499 14.7979C14.6532 14.7979 10.9268 18.6336 10.9268 23.3652C10.9268 28.0968 14.6532 31.9325 19.2499 31.9325Z" fill="white"/>
<path d="M38.457 31.9325C43.0537 31.9325 46.7801 28.0968 46.7801 23.3652C46.7801 18.6336 43.0537 14.7979 38.457 14.7979C33.8602 14.7979 30.1338 18.6336 30.1338 23.3652C30.1338 28.0968 33.8602 31.9325 38.457 31.9325Z" fill="white"/>
<path d="M19.2928 27.5193C21.3201 27.5193 22.9635 25.9695 22.9635 24.0577C22.9635 22.146 21.3201 20.5962 19.2928 20.5962C17.2655 20.5962 15.6221 22.146 15.6221 24.0577C15.6221 25.9695 17.2655 27.5193 19.2928 27.5193Z" fill="black"/>
<path d="M38.4998 27.5193C40.5271 27.5193 42.1706 25.9695 42.1706 24.0577C42.1706 22.146 40.5271 20.5962 38.4998 20.5962C36.4725 20.5962 34.8291 22.146 34.8291 24.0577C34.8291 25.9695 36.4725 27.5193 38.4998 27.5193Z" fill="black"/>
<path d="M20.36 22.6729C20.9494 22.6729 21.4271 22.2467 21.4271 21.721C21.4271 21.1952 20.9494 20.769 20.36 20.769C19.7707 20.769 19.293 21.1952 19.293 21.721C19.293 22.2467 19.7707 22.6729 20.36 22.6729Z" fill="white"/>
<path d="M39.5671 22.6729C40.1564 22.6729 40.6341 22.2467 40.6341 21.721C40.6341 21.1952 40.1564 20.769 39.5671 20.769C38.9777 20.769 38.5 21.1952 38.5 21.721C38.5 22.2467 38.9777 22.6729 39.5671 22.6729Z" fill="white"/>
<path d="M28.8547 32.7954L26.4912 27.5947L31.5205 27.7472L28.8547 32.7954Z" fill="#88C0D0"/>
<path d="M29.0063 25.9595L31.4719 27.7718L26.4424 27.6258L29.0063 25.9595Z" fill="#88C0D0"/>
<path d="M37.1344 5.71173C37.8887 5.71173 38.5003 5.32428 38.5003 4.84634C38.5003 4.3684 37.8887 3.98096 37.1344 3.98096C36.3801 3.98096 35.7686 4.3684 35.7686 4.84634C35.7686 5.32428 36.3801 5.71173 37.1344 5.71173Z" fill="#88C0D0"/>
<path d="M37.7744 5.36538C38.1752 5.36538 38.5 5.17166 38.5 4.93269C38.5 4.69372 38.1752 4.5 37.7744 4.5C37.3737 4.5 37.0488 4.69372 37.0488 4.93269C37.0488 5.17166 37.3737 5.36538 37.7744 5.36538Z" fill="white"/>
<path d="M38.4354 7.7454C39.2797 7.55513 39.8813 7.02267 39.779 6.55612C39.6766 6.08957 38.9092 5.8656 38.0649 6.05587C37.2206 6.24614 36.6191 6.7786 36.7214 7.24515C36.8237 7.7117 37.5911 7.93567 38.4354 7.7454Z" fill="#88C0D0"/>
<path d="M38.6596 6.9486C39.1236 6.84402 39.4611 6.58277 39.4134 6.36508C39.3656 6.14739 38.9507 6.05569 38.4867 6.16026C38.0227 6.26484 37.6852 6.52608 37.7329 6.74378C37.7807 6.96147 38.1955 7.05317 38.6596 6.9486Z" fill="white"/>
<path d="M39.7355 10.2963C40.507 10.1224 41.0267 9.49926 40.8963 8.90444C40.7658 8.30961 40.0347 7.96836 39.2632 8.14222C38.4916 8.31609 37.972 8.93923 38.1024 9.53405C38.2328 10.1289 38.964 10.4701 39.7355 10.2963Z" fill="#88C0D0"/>
<path d="M39.5901 9.06161C40.045 8.95911 40.3731 8.6907 40.3229 8.46212C40.2728 8.23353 39.8634 8.13132 39.4086 8.23383C38.9537 8.33634 38.6256 8.60474 38.6757 8.83332C38.7258 9.06191 39.1352 9.16412 39.5901 9.06161Z" fill="white"/>
<path d="M40.4056 12.152C40.8149 12.5142 41.4944 12.404 41.9233 11.9058C42.3522 11.4077 42.3681 10.7103 41.9588 10.3481C41.5496 9.98598 40.8701 10.0962 40.4411 10.5943C40.0122 11.0924 39.9963 11.7898 40.4056 12.152Z" fill="#88C0D0"/>
<path d="M40.8243 11.2773C41.0234 11.4535 41.362 11.3904 41.5807 11.1364C41.7995 10.8824 41.8154 10.5337 41.6163 10.3575C41.4172 10.1814 41.0786 10.2445 40.8599 10.4985C40.6412 10.7525 40.6252 11.1012 40.8243 11.2773Z" fill="white"/>
</g>
<defs>
<clipPath id="clip0_261_441">
<rect width="56" height="63" fill="white"/>
</clipPath>
</defs>
</svg>
